<svg width="133" height="36" xmlns="http://www.w3.org/2000/svg" viewBox="0 0 447.75 62.99"><defs><style>.cls-1{fill:#47ad8c;}.cls-2{fill:#fff;}.cls-3{fill:#f9a81a;}.cls-4{fill:#a2d7c0;}</style></defs><g id="Layer_2" data-name="Layer 2"><g id="Layer_1-2" data-name="Layer 1"><path class="cls-1" d="M137.86,0s7.6-.6,5,5a8.36,8.36,0,0,1-8,5.11H53.57s-6.54-.95-10,4.27L36.47,25s-2.62,4.39,3,4.16H91.19S98,28.51,97,32.43s-7.72,5.7-7.72,5.7H19.49s-5.34.71-3.93-4L35.4,6.19A12.16,12.16,0,0,1,45.61.14Z"/><path class="cls-2" d="M137.77,2.87h-12.1a3.53,3.53,0,0,0-2.55,1.3h-74a12,12,0,0,0-10.3,5.22l-13.63,19a5.89,5.89,0,0,0-1.52,3.38,2.42,2.42,0,0,0,.2,1c.44,1.1,1.59,1.72,3.41,1.86H76.52a1.59,1.59,0,0,0,1.62,1.07H90.25a3.61,3.61,0,0,0,3.16-2.38,1.65,1.65,0,0,0-1.58-2.38H79.72A3.55,3.55,0,0,0,77,32.43H27.32c-1-.07-1.43-.33-1.52-.53-.17-.41.4-1.5,1-2.21l.06-.08,13.65-19A9.82,9.82,0,0,1,49,6.31h73.45a1.59,1.59,0,0,0,1.68,1.31h12.1a3.63,3.63,0,0,0,3.17-2.38A1.65,1.65,0,0,0,137.77,2.87Z"/><path class="cls-3" d="M5.53,52.77s-7.59.59-5-5a8.35,8.35,0,0,1,7.94-5.11H89.83s6.53.95,10-4.27l7.12-10.57s2.61-4.39-3-4.15H52.19s-6.76.59-5.81-3.33,7.72-5.7,7.72-5.7h69.8s5.35-.71,3.92,4L108,46.59a12.16,12.16,0,0,1-10.2,6.06Z"/><path class="cls-2" d="M119.57,20.07c-.45-1.1-1.61-1.73-3.42-1.85H66.88a1.6,1.6,0,0,0-1.63-1.06H53.14A3.62,3.62,0,0,0,50,19.52a1.65,1.65,0,0,0,1.59,2.37h12.1a3.55,3.55,0,0,0,2.73-1.54h49.67c1,.07,1.44.33,1.51.53.17.41-.39,1.5-1,2.21l-.06.08-13.65,19a9.82,9.82,0,0,1-8.43,4.3H21a1.57,1.57,0,0,0-1.67-1.3H7.2A3.63,3.63,0,0,0,4,47.54a1.66,1.66,0,0,0,1.59,2.37H17.72a3.47,3.47,0,0,0,2.54-1.3H94.32a11.92,11.92,0,0,0,10.28-5.22l13.64-19a6,6,0,0,0,1.51-3.38A2.61,2.61,0,0,0,119.57,20.07Z"/><path class="cls-4" d="M159.88,12.9a3.39,3.39,0,1,0-4.27,3.25V41.4h1.78V16.15A3.37,3.37,0,0,0,159.88,12.9Zm-3.38,2.58a2.58,2.58,0,1,1,2.58-2.58A2.59,2.59,0,0,1,156.5,15.48Z"/><path class="cls-4" d="M157.39,40.73V15.48h-1.78V40.73a3.38,3.38,0,1,0,1.78,0Zm-.89,5.83A2.58,2.58,0,1,1,159.08,44,2.57,2.57,0,0,1,156.5,46.56Z"/><path class="cls-1" d="M209.57,35a11.26,11.26,0,0,1-5.17,10q-4.46,2.92-11.49,2.92a19.32,19.32,0,0,1-11.78-3.43,12.74,12.74,0,0,1-5.22-10.88h8.48A6.73,6.73,0,0,0,187,39.34a10.18,10.18,0,0,0,6.24,1.71,11.65,11.65,0,0,0,5-1A4.34,4.34,0,0,0,201.12,36a4,4,0,0,0-2.22-3.59q-1.35-.84-9.72-3.09a35.44,35.44,0,0,1-6.12-2.1,10.8,10.8,0,0,1-3.69-2.71,9.8,9.8,0,0,1-2.21-6.64,10.68,10.68,0,0,1,4.76-9.16,17.37,17.37,0,0,1,10.31-3q6.84,0,11.13,2.88,5,3.33,5,10h-8.61A5.08,5.08,0,0,0,197.5,14a10.29,10.29,0,0,0-5.68-1.43,8.38,8.38,0,0,0-4.27,1.07,3.74,3.74,0,0,0-1.84,3.53,3.4,3.4,0,0,0,2.16,3.17q1.81.93,9.92,2.93a24.62,24.62,0,0,1,7,2.63A10.16,10.16,0,0,1,209.57,35Z"/><path class="cls-1" d="M249,6.6l-14.8,24.82V46.93h-8.81V31.26L210.54,6.6h10l9.43,16,9.33-16Z"/><path class="cls-1" d="M286.29,46.93H277.4L260.64,20v27h-8.28V6.6h8.58l16.89,27.2V6.6h8.46Z"/><path class="cls-1" d="M324.41,46.93H294V6.6h30v7.47H302.8v8.64h19.41v6.86H302.8v9.88h21.61Z"/><path class="cls-1" d="M364.89,46.93h-8.77a21.13,21.13,0,0,1-1-5.31,14,14,0,0,0-.42-4.34q-.44-3.3-1.95-4.64c-.86-1-2.41-1.47-4.67-1.47H339.2V46.93h-8.81V6.6H352a11.62,11.62,0,0,1,8.42,3.23,10.67,10.67,0,0,1,3.34,7.93q0,7.48-6.37,10.08a6.88,6.88,0,0,1,4.45,3.68,17.26,17.26,0,0,1,1.36,5.86c0,3.87.25,6.5.76,7.86A6.75,6.75,0,0,0,364.89,46.93Zm-10-27.84c0-3.76-2-5.64-6-5.64H339.2v11.4h9.68C352.88,24.85,354.87,22.93,354.87,19.09Z"/><path class="cls-1" d="M406.57,46.93h-5.64l-1-4.55A12.79,12.79,0,0,1,389,47.91q-9.11,0-14.57-6.1-5.26-5.81-5.26-14.87,0-9.24,5.18-15.09Q379.77,5.7,389,5.7a17.41,17.41,0,0,1,11.37,3.89,14.85,14.85,0,0,1,5.46,10.29h-8.38c-.88-4.46-3.68-6.69-8.43-6.69a9.75,9.75,0,0,0-8.44,4.17q-2.49,3.51-2.49,9.59c0,3.87.81,7,2.45,9.35q2.85,4.14,8.47,4.13,8.64,0,9.54-8.73h-8.89V25.12h16.92Z"/><path class="cls-1" d="M447.75,6.6,433,31.42V46.93h-8.81V31.26L409.27,6.6h10l9.44,16L438,6.6Z"/><path class="cls-4" d="M339.89,54.58h-3.47v8.19h-2.54V54.58h-3.42V52.71h9.43Z"/><path class="cls-4" d="M349.9,62.77h-8.72V52.71h8.6v1.87h-6.06v2.13h5.56v1.7h-5.56V60.9h6.18Z"/><path class="cls-4" d="M361.82,58.9a4.23,4.23,0,0,1-1.55,3A5.29,5.29,0,0,1,356.76,63a5.71,5.71,0,0,1-4.17-1.52,4.87,4.87,0,0,1-1.51-3.7A5.09,5.09,0,0,1,352.56,54a5.75,5.75,0,0,1,4.2-1.53,5.62,5.62,0,0,1,3.35,1,3.85,3.85,0,0,1,1.61,2.64h-2.44a1.76,1.76,0,0,0-.87-1.27,3,3,0,0,0-1.65-.45,2.94,2.94,0,0,0-2.42,1,3.65,3.65,0,0,0-.73,2.39,3.61,3.61,0,0,0,.71,2.32,3,3,0,0,0,2.44,1,2.41,2.41,0,0,0,2.35-1.28,2.74,2.74,0,0,0,.26-.94Z"/><path class="cls-4" d="M373.26,62.77h-2.55V58.45h-4.62v4.32h-2.54V52.71h2.54v3.87h4.62V52.71h2.55Z"/><path class="cls-4" d="M385.18,62.77h-2.53L377.84,56v6.73h-2.36V52.71h2.44l4.86,6.79V52.71h2.4Z"/><path class="cls-4" d="M398.18,57.77a4.91,4.91,0,0,1-1.48,3.7A5.6,5.6,0,0,1,392.56,63a5.69,5.69,0,0,1-4.17-1.52,4.88,4.88,0,0,1-1.52-3.7A5.06,5.06,0,0,1,388.36,54a5.72,5.72,0,0,1,4.2-1.53A5.64,5.64,0,0,1,396.74,54,5.11,5.11,0,0,1,398.18,57.77Zm-2.53,0a3.84,3.84,0,0,0-.68-2.36,2.86,2.86,0,0,0-2.44-1.06,3,3,0,0,0-2.4,1,3.64,3.64,0,0,0-.71,2.39,3.6,3.6,0,0,0,.7,2.32,2.89,2.89,0,0,0,2.41,1,2.84,2.84,0,0,0,2.4-1A3.57,3.57,0,0,0,395.65,57.78Z"/><path class="cls-4" d="M408,62.77h-8.1V52.71h2.54V60.9H408Z"/><path class="cls-4" d="M420.25,57.77a5,5,0,0,1-1.49,3.7A5.62,5.62,0,0,1,414.62,63a5.71,5.71,0,0,1-4.17-1.52,4.87,4.87,0,0,1-1.51-3.7A5.06,5.06,0,0,1,410.42,54a5.72,5.72,0,0,1,4.2-1.53A5.63,5.63,0,0,1,418.8,54,5.12,5.12,0,0,1,420.25,57.77Zm-2.54,0a3.84,3.84,0,0,0-.68-2.36,2.87,2.87,0,0,0-2.43-1.06,2.94,2.94,0,0,0-2.41,1,3.7,3.7,0,0,0-.71,2.39,3.55,3.55,0,0,0,.7,2.32,2.91,2.91,0,0,0,2.42,1,2.82,2.82,0,0,0,2.39-1A3.57,3.57,0,0,0,417.71,57.78Z"/><path class="cls-4" d="M432.25,62.77h-1.63l-.28-1.14A3.89,3.89,0,0,1,427.2,63,5.73,5.73,0,0,1,423,61.47a4.87,4.87,0,0,1-1.51-3.7A5.06,5.06,0,0,1,423,54a5.74,5.74,0,0,1,4.2-1.53,5.51,5.51,0,0,1,3.26,1A3.61,3.61,0,0,1,432,56h-2.41a2.14,2.14,0,0,0-2.42-1.66,3,3,0,0,0-2.43,1,4.29,4.29,0,0,0,0,4.71,3,3,0,0,0,2.44,1c1.65,0,2.57-.73,2.74-2.18h-2.54V57.3h4.86Z"/><path class="cls-4" d="M444,52.71,439.8,58.9v3.87h-2.53V58.86L433,52.71h2.87l2.71,4,2.65-4Z"/></g></g></svg>