<svg width="133" height="36" viewBox="0 0 133 36" fill="none" xmlns="http://www.w3.org/2000/svg">
<g clip-path="url(#clip0)">
<path d="M40.9503 8.64471C40.9503 8.64471 43.2078 8.46649 42.4355 10.1299C42.24 10.594 41.908 10.9878 41.4836 11.2588C41.0592 11.5299 40.5624 11.6656 40.0591 11.6478H15.9127C15.9127 11.6478 13.9701 11.3656 12.9423 12.9162L10.8333 16.0707C10.8333 16.0707 10.0551 17.3747 11.7244 17.3064H27.0874C27.0874 17.3064 29.1102 17.1133 28.8132 18.2777C28.5161 19.4421 26.52 19.9709 26.52 19.9709H5.78955C5.78955 19.9709 4.20335 20.1818 4.62218 18.7827L10.5155 10.4834C10.8254 9.94971 11.2668 9.50433 11.7977 9.18973C12.3287 8.87514 12.9313 8.70181 13.5483 8.6863L40.9503 8.64471Z" fill="#47AD8C"/>
<path d="M40.9237 9.49723H37.3295C37.1833 9.50514 37.0403 9.54359 36.9099 9.61009C36.7794 9.6766 36.6643 9.7697 36.572 9.88339H14.591C13.9918 9.86368 13.3973 9.99543 12.8625 10.2665C12.3277 10.5375 11.8699 10.939 11.5315 11.4339L7.48283 17.0777C7.22822 17.3551 7.06988 17.7072 7.03133 18.0817C7.02981 18.1838 7.05006 18.2851 7.09074 18.3788C7.22144 18.7055 7.56303 18.8897 8.10365 18.9312H22.7299C22.7638 19.0299 22.8293 19.1146 22.9164 19.1721C23.0034 19.2296 23.1071 19.2567 23.2111 19.2491H26.8083C27.0166 19.2354 27.2164 19.1612 27.3831 19.0356C27.5498 18.91 27.6763 18.7385 27.747 18.5421C27.7852 18.4651 27.8024 18.3794 27.797 18.2936C27.7916 18.2078 27.7638 18.1249 27.7162 18.0533C27.6687 17.9816 27.6031 17.9238 27.5261 17.8855C27.4491 17.8472 27.3634 17.8299 27.2776 17.8352H23.6805C23.5211 17.843 23.3656 17.8869 23.2256 17.9636C23.0856 18.0402 22.9649 18.1477 22.8725 18.2778H8.11553C7.81849 18.257 7.69076 18.1797 7.66403 18.1203C7.61353 17.9985 7.78284 17.6748 7.96107 17.4639L7.97889 17.4401L12.0335 11.7963C12.3111 11.3871 12.6882 11.0552 13.1294 10.8318C13.5705 10.6083 14.0612 10.5007 14.5554 10.5191H36.373C36.3933 10.6342 36.4555 10.7377 36.5477 10.8095C36.6399 10.8814 36.7555 10.9166 36.872 10.9082H40.4662C40.6748 10.8943 40.8749 10.8201 41.0421 10.6946C41.2092 10.5691 41.3363 10.3977 41.4079 10.2012C41.4462 10.1231 41.463 10.0363 41.4566 9.94951C41.4503 9.86277 41.421 9.77928 41.3717 9.70762C41.3224 9.63596 41.2549 9.5787 41.1762 9.54173C41.0975 9.50475 41.0103 9.4894 40.9237 9.49723V9.49723Z" fill="white"/>
<path d="M1.64279 24.3195C1.64279 24.3195 -0.611751 24.4948 0.157584 22.8343C0.351614 22.3729 0.680736 21.9809 1.10169 21.71C1.52263 21.4391 2.01571 21.3019 2.51609 21.3165H26.6833C26.6833 21.3165 28.623 21.5986 29.6537 20.0481L31.7687 16.9084C31.7687 16.9084 32.5439 15.6044 30.8775 15.6757H15.5027C15.5027 15.6757 13.4947 15.8509 13.7769 14.6865C14.0591 13.5221 16.0701 12.9934 16.0701 12.9934H36.8035C36.8035 12.9934 38.3927 12.7825 37.9679 14.1815L32.0806 22.4838C31.7713 23.0176 31.3305 23.4633 30.8001 23.7784C30.2697 24.0936 29.6675 24.2676 29.0507 24.2839L1.64279 24.3195Z" fill="#F9A81A"/>
<path d="M35.5174 14.6064C35.3837 14.2796 35.0391 14.0925 34.5015 14.0569H19.8663C19.8313 13.9585 19.765 13.8743 19.6775 13.8174C19.59 13.7605 19.4862 13.734 19.3821 13.742H15.7849C15.5785 13.7567 15.3807 13.8306 15.2152 13.955C15.0498 14.0793 14.9237 14.2488 14.8522 14.443C14.8146 14.5202 14.7979 14.6058 14.8037 14.6915C14.8096 14.7771 14.8379 14.8597 14.8857 14.931C14.9335 15.0022 14.9992 15.0597 15.0762 15.0976C15.1533 15.1355 15.2389 15.1526 15.3245 15.147H18.9187C19.0799 15.1379 19.2368 15.0919 19.3774 15.0126C19.518 14.9333 19.6385 14.8228 19.7296 14.6895H34.4836C34.7807 14.7103 34.9114 14.7876 34.9322 14.847C34.9827 14.9688 34.8163 15.2925 34.6351 15.5034L34.6173 15.5272L30.5627 21.171C30.2867 21.5776 29.9125 21.9079 29.4747 22.1311C29.0369 22.3544 28.5498 22.4635 28.0587 22.4483H6.23804C6.2184 22.3336 6.15663 22.2305 6.06486 22.159C5.97309 22.0876 5.85793 22.053 5.74199 22.0621H2.13888C1.92908 22.0741 1.72734 22.1471 1.55847 22.2721C1.3896 22.3972 1.26095 22.5689 1.18835 22.7661C1.15166 22.8433 1.13567 22.9287 1.14196 23.014C1.14825 23.0993 1.17661 23.1814 1.22424 23.2524C1.27187 23.3234 1.33714 23.3808 1.41365 23.419C1.49016 23.4571 1.57528 23.4747 1.66065 23.4701H5.26375C5.4097 23.4629 5.55244 23.4247 5.68252 23.3581C5.8126 23.2916 5.92703 23.1981 6.01823 23.0839H28.0171C28.6157 23.1048 29.2098 22.9736 29.7438 22.7024C30.2778 22.4312 30.7344 22.029 31.0707 21.5334L35.1223 15.8896C35.3739 15.6106 35.5309 15.2592 35.5708 14.8856C35.5704 14.79 35.5522 14.6954 35.5174 14.6064V14.6064Z" fill="white"/>
<path d="M47.491 12.4766C47.4923 12.2883 47.4408 12.1035 47.3424 11.9431C47.244 11.7826 47.1027 11.653 46.9343 11.5688C46.766 11.4847 46.5774 11.4494 46.39 11.4669C46.2026 11.4845 46.0239 11.5542 45.8741 11.6682C45.7244 11.7822 45.6096 11.9359 45.5427 12.1118C45.4759 12.2878 45.4597 12.4789 45.4959 12.6636C45.5322 12.8483 45.6195 13.0191 45.748 13.1567C45.8764 13.2943 46.0408 13.3931 46.2226 13.4419V20.9422H46.7513V13.4419C46.9635 13.3845 47.1509 13.2589 47.2846 13.0844C47.4182 12.91 47.4908 12.6963 47.491 12.4766V12.4766ZM46.487 13.2429C46.3354 13.2429 46.1872 13.198 46.0612 13.1138C45.9352 13.0296 45.8369 12.9099 45.7789 12.7698C45.7209 12.6298 45.7058 12.4757 45.7353 12.327C45.7649 12.1784 45.8379 12.0418 45.9451 11.9347C46.0522 11.8275 46.1888 11.7545 46.3375 11.7249C46.4861 11.6953 46.6402 11.7105 46.7802 11.7685C46.9203 11.8265 47.04 11.9248 47.1242 12.0508C47.2084 12.1768 47.2533 12.325 47.2533 12.4766C47.2525 12.6796 47.1716 12.874 47.028 13.0176C46.8844 13.1611 46.69 13.2421 46.487 13.2429V13.2429Z" fill="#A2D7C0"/>
<path d="M46.7513 20.7432V13.2429H46.2225V20.7432C45.988 20.8072 45.7846 20.9542 45.6502 21.1569C45.5158 21.3596 45.4595 21.6041 45.4918 21.8451C45.5241 22.0862 45.6428 22.3073 45.8258 22.4674C46.0088 22.6275 46.2437 22.7158 46.4869 22.7158C46.7301 22.7158 46.965 22.6275 47.148 22.4674C47.331 22.3073 47.4497 22.0862 47.482 21.8451C47.5143 21.6041 47.458 21.3596 47.3236 21.1569C47.1893 20.9542 46.9859 20.8072 46.7513 20.7432ZM46.4869 22.4749C46.3351 22.4749 46.1867 22.4298 46.0605 22.3454C45.9344 22.2609 45.8362 22.1408 45.7783 22.0005C45.7205 21.8601 45.7057 21.7057 45.7357 21.5569C45.7658 21.4081 45.8394 21.2715 45.9471 21.1646C46.0549 21.0576 46.192 20.9851 46.3411 20.9562C46.4901 20.9273 46.6444 20.9434 46.7843 21.0023C46.9243 21.0612 47.0435 21.1603 47.127 21.2871C47.2105 21.414 47.2545 21.5627 47.2533 21.7145C47.2529 21.8148 47.2328 21.914 47.194 22.0064C47.1553 22.0989 47.0988 22.1828 47.0276 22.2535C46.9564 22.3241 46.872 22.38 46.7793 22.418C46.6865 22.456 46.5872 22.4753 46.4869 22.4749V22.4749Z" fill="#A2D7C0"/>
<path d="M62.2509 19.0412C62.2781 19.6275 62.1505 20.2107 61.8809 20.7321C61.6114 21.2535 61.2093 21.6948 60.7152 22.0116C59.832 22.5898 58.6944 22.879 57.3022 22.879C56.0561 22.9286 54.8278 22.5709 53.8031 21.8601C53.2977 21.4915 52.8915 21.0034 52.6209 20.4394C52.3503 19.8755 52.2238 19.2532 52.2525 18.6283H54.7714C54.7521 18.9537 54.8126 19.2789 54.9478 19.5756C55.0829 19.8722 55.2885 20.1314 55.5467 20.3304C56.0929 20.6967 56.7436 20.875 57.4003 20.8383C57.9112 20.8502 58.4184 20.7487 58.8855 20.5412C59.1341 20.4524 59.3494 20.2895 59.5024 20.0743C59.6554 19.8592 59.7387 19.6022 59.7409 19.3382C59.7414 19.1167 59.6799 18.8994 59.5633 18.711C59.4468 18.5226 59.2799 18.3704 59.0815 18.2719C58.8142 18.1055 57.8518 17.7996 56.1943 17.354C55.5706 17.2019 54.9621 16.9931 54.3764 16.7302C53.9577 16.5433 53.5839 16.2688 53.2803 15.9252C52.8262 15.371 52.5925 14.6687 52.6238 13.9529C52.6104 13.4168 52.733 12.8861 52.9802 12.4103C53.2275 11.9344 53.5913 11.5291 54.0378 11.232C54.9389 10.619 56.0109 10.307 57.1002 10.3409C58.4548 10.3409 59.5568 10.626 60.4063 11.1963C61.3964 11.8558 61.8915 12.8459 61.8915 14.1668H59.334C59.353 13.9007 59.3012 13.6344 59.1838 13.3949C59.0664 13.1554 58.8876 12.9512 58.6657 12.8033C58.1563 12.5013 57.5701 12.3537 56.9785 12.3786C56.5349 12.3696 56.097 12.4793 55.7101 12.6964C55.5295 12.802 55.3824 12.9564 55.2857 13.1419C55.189 13.3274 55.1467 13.5365 55.1635 13.745C55.1633 13.9483 55.2244 14.1469 55.3389 14.3149C55.4533 14.4829 55.6159 14.6124 55.8052 14.6866C56.1636 14.8707 57.1458 15.1609 58.7518 15.5569C59.4806 15.7099 60.1818 15.9734 60.8311 16.3381C61.2867 16.6217 61.6585 17.0217 61.9081 17.4969C62.1576 17.972 62.276 18.5051 62.2509 19.0412V19.0412Z" fill="white"/>
<path d="M73.9633 10.6052L69.567 17.9778V22.5849H66.9501V17.9302L62.5391 10.6052H65.5095L68.3106 15.3579L71.082 10.6052H73.9633Z" fill="white"/>
<path d="M85.04 22.5849H82.3993L77.4209 14.5856V22.6057H74.9614V10.6052H77.51L82.527 18.6847V10.6052H85.04V22.5849Z" fill="white"/>
<path d="M96.3631 22.5849H87.3301V10.6052H96.2413V12.8241H89.944V15.3906H95.7096V17.4283H89.944V20.363H96.3631V22.5849Z" fill="white"/>
<path d="M108.388 22.5848H105.783C105.616 22.074 105.517 21.5439 105.485 21.0076C105.511 20.574 105.469 20.139 105.361 19.7184C105.274 19.0649 105.08 18.6055 104.781 18.3401C104.526 18.0431 104.066 17.9035 103.394 17.9035H100.757V22.5848H98.1396V10.6052H104.559C105.018 10.5904 105.477 10.6676 105.906 10.8324C106.336 10.9971 106.728 11.2461 107.06 11.5646C107.38 11.8669 107.633 12.2324 107.804 12.6379C107.975 13.0435 108.059 13.4802 108.052 13.9202C108.052 15.4014 107.421 16.3995 106.16 16.9143C106.446 16.9899 106.713 17.1268 106.941 17.3155C107.169 17.5042 107.354 17.7403 107.482 18.0074C107.717 18.5595 107.854 19.1487 107.886 19.7481C107.886 20.8976 107.96 21.6789 108.111 22.0828C108.179 22.2625 108.272 22.4316 108.388 22.5848V22.5848ZM105.417 14.3152C105.417 13.1984 104.823 12.6399 103.635 12.6399H100.757V16.0262H103.632C104.82 16.0262 105.411 15.4559 105.411 14.3152H105.417Z" fill="white"/>
<path d="M120.768 22.5849H119.093L118.796 21.2333C118.435 21.7569 117.949 22.1816 117.382 22.4686C116.815 22.7556 116.184 22.8957 115.549 22.876C113.745 22.876 112.302 22.272 111.221 21.064C110.179 19.9135 109.659 18.4412 109.659 16.647C109.659 14.8173 110.172 13.3231 111.197 12.1647C112.271 10.9468 113.721 10.3379 115.549 10.3379C116.776 10.31 117.973 10.7196 118.926 11.4934C119.389 11.8672 119.771 12.3307 120.049 12.856C120.328 13.3812 120.498 13.9574 120.548 14.5499H118.059C117.798 13.2251 116.966 12.5627 115.555 12.5627C115.066 12.5408 114.58 12.6428 114.142 12.8594C113.704 13.076 113.327 13.4001 113.048 13.8014C112.555 14.4965 112.308 15.446 112.308 16.65C112.308 17.7995 112.549 18.7293 113.036 19.4273C113.6 20.2472 114.439 20.6561 115.552 20.6541C117.263 20.6541 118.208 19.7897 118.386 18.0609H115.745V16.1064H120.771L120.768 22.5849Z" fill="white"/>
<path d="M133 10.6052L128.619 17.9778V22.5849H126.002V17.9302L121.57 10.6052H124.54L127.344 15.3579L130.104 10.6052H133Z" fill="white"/>
<path d="M100.961 24.8572H99.9305V27.29H99.176V24.8572H98.1602V24.3018H100.961V24.8572Z" fill="white"/>
<path d="M103.935 27.29H101.345V24.3018H103.899V24.8572H102.099V25.4899H103.751V25.9949H102.099V26.7345H103.935V27.29Z" fill="white"/>
<path d="M107.475 26.1404C107.464 26.3126 107.417 26.4805 107.338 26.6339C107.259 26.7872 107.149 26.9225 107.015 27.0315C106.718 27.2616 106.348 27.3775 105.972 27.3582C105.746 27.3695 105.52 27.3353 105.307 27.2578C105.095 27.1802 104.9 27.0609 104.734 26.9067C104.586 26.7657 104.469 26.5948 104.392 26.4053C104.314 26.2159 104.278 26.0122 104.285 25.8077C104.278 25.6004 104.313 25.3937 104.388 25.2006C104.464 25.0074 104.578 24.8319 104.725 24.6849C104.892 24.5297 105.088 24.4095 105.303 24.3314C105.517 24.2534 105.745 24.219 105.972 24.2304C106.327 24.2211 106.676 24.3251 106.967 24.5274C107.097 24.618 107.206 24.7344 107.289 24.8694C107.371 25.0044 107.425 25.155 107.446 25.3116H106.721C106.709 25.2333 106.68 25.1586 106.635 25.0932C106.59 25.0279 106.531 24.9736 106.463 24.9344C106.316 24.8432 106.145 24.7968 105.972 24.8007C105.838 24.7913 105.703 24.8132 105.578 24.8648C105.453 24.9163 105.342 24.9961 105.254 25.0978C105.1 25.3015 105.023 25.5529 105.037 25.8077C105.025 26.0548 105.1 26.2983 105.248 26.4968C105.338 26.5983 105.45 26.6778 105.576 26.7292C105.701 26.7807 105.837 26.8028 105.972 26.7939C106.113 26.8065 106.255 26.7772 106.379 26.7095C106.503 26.6419 106.605 26.5389 106.67 26.4136C106.713 26.3259 106.739 26.2314 106.748 26.1344L107.475 26.1404Z" fill="white"/>
<path d="M110.874 27.29H110.116V26.0068H108.744V27.29H107.989V24.3018H108.744V25.4513H110.116V24.3018H110.874V27.29Z" fill="white"/>
<path d="M114.414 27.29H113.663L112.234 25.279V27.2781H111.533V24.3018H112.258L113.702 26.3187V24.3018H114.414V27.29Z" fill="white"/>
<path d="M118.276 25.8047C118.283 26.0085 118.248 26.2116 118.172 26.4009C118.097 26.5902 117.982 26.7615 117.836 26.9038C117.673 27.0589 117.479 27.1792 117.268 27.2573C117.056 27.3354 116.831 27.3698 116.606 27.3583C116.38 27.3698 116.154 27.3358 115.941 27.2583C115.728 27.1807 115.533 27.0612 115.368 26.9068C115.219 26.7659 115.102 26.5951 115.024 26.4056C114.946 26.2162 114.909 26.0124 114.916 25.8077C114.908 25.6001 114.944 25.3932 115.02 25.1999C115.096 25.0067 115.211 24.8313 115.359 24.6849C115.525 24.5293 115.722 24.4088 115.936 24.3307C116.151 24.2527 116.378 24.2185 116.606 24.2304C116.833 24.218 117.06 24.2519 117.274 24.33C117.487 24.4081 117.683 24.5289 117.848 24.6849C117.991 24.8327 118.103 25.0083 118.177 25.2008C118.251 25.3933 118.284 25.5988 118.276 25.8047V25.8047ZM117.524 25.8047C117.535 25.5552 117.464 25.309 117.322 25.1037C117.236 24.9964 117.125 24.9117 116.999 24.8569C116.872 24.802 116.735 24.7787 116.597 24.7889C116.464 24.7817 116.33 24.8047 116.207 24.8561C116.084 24.9075 115.973 24.9861 115.884 25.0859C115.733 25.2903 115.658 25.5417 115.674 25.7958C115.661 26.0427 115.735 26.2862 115.881 26.485C115.969 26.5871 116.08 26.6673 116.204 26.7189C116.328 26.7705 116.463 26.7921 116.597 26.782C116.731 26.7928 116.866 26.7715 116.99 26.7198C117.114 26.6682 117.224 26.5877 117.31 26.485C117.457 26.2905 117.533 26.0513 117.524 25.8077V25.8047Z" fill="white"/>
<path d="M121.193 27.29H118.787V24.3018H119.541V26.7345H121.193V27.29Z" fill="white"/>
<path d="M124.831 25.8048C124.837 26.0086 124.801 26.2113 124.724 26.4004C124.648 26.5894 124.534 26.7608 124.389 26.9038C124.225 27.0587 124.032 27.1788 123.82 27.2569C123.609 27.335 123.384 27.3695 123.159 27.3583C122.933 27.3696 122.707 27.3354 122.494 27.2578C122.281 27.1803 122.086 27.0609 121.92 26.9068C121.772 26.7658 121.656 26.5949 121.578 26.4054C121.501 26.216 121.465 26.0123 121.472 25.8078C121.464 25.6004 121.498 25.3936 121.574 25.2003C121.65 25.0071 121.765 24.8316 121.912 24.685C122.078 24.5293 122.275 24.4089 122.489 24.3308C122.703 24.2527 122.931 24.2186 123.159 24.2305C123.386 24.2179 123.613 24.2517 123.827 24.3298C124.04 24.4079 124.235 24.5288 124.401 24.685C124.545 24.8327 124.657 25.0081 124.731 25.2006C124.805 25.3931 124.839 25.5987 124.831 25.8048ZM124.077 25.8048C124.088 25.5553 124.017 25.309 123.875 25.1038C123.789 24.9971 123.678 24.9128 123.553 24.858C123.427 24.8032 123.29 24.7795 123.153 24.7889C123.019 24.78 122.885 24.8022 122.76 24.8537C122.636 24.9052 122.526 24.9847 122.437 25.086C122.287 25.2911 122.212 25.542 122.226 25.7959C122.213 26.0429 122.286 26.2868 122.434 26.485C122.523 26.5873 122.634 26.6674 122.758 26.719C122.883 26.7705 123.018 26.7922 123.153 26.7821C123.287 26.7929 123.421 26.7716 123.544 26.7199C123.668 26.6682 123.777 26.5877 123.863 26.485C124.01 26.2906 124.086 26.0514 124.077 25.8078V25.8048Z" fill="white"/>
<path d="M128.396 27.29H127.912L127.828 26.9513C127.714 27.0859 127.571 27.1925 127.409 27.263C127.248 27.3336 127.072 27.3662 126.896 27.3583C126.668 27.37 126.44 27.3358 126.226 27.2577C126.011 27.1797 125.815 27.0593 125.648 26.9038C125.5 26.7628 125.383 26.5919 125.306 26.4024C125.229 26.213 125.192 26.0093 125.2 25.8048C125.193 25.5973 125.229 25.3906 125.307 25.1979C125.384 25.0051 125.5 24.8305 125.648 24.6849C125.815 24.5296 126.012 24.4093 126.226 24.3313C126.44 24.2532 126.668 24.2189 126.896 24.2305C127.242 24.2246 127.581 24.3286 127.864 24.5275C127.989 24.6133 128.095 24.7246 128.173 24.8542C128.252 24.9837 128.303 25.1285 128.322 25.279H127.606C127.571 25.1207 127.478 24.9815 127.344 24.8898C127.21 24.7982 127.047 24.761 126.887 24.7859C126.752 24.7774 126.617 24.7997 126.492 24.8512C126.367 24.9027 126.255 24.9819 126.165 25.083C126.029 25.2907 125.956 25.5339 125.956 25.7825C125.956 26.0311 126.029 26.2742 126.165 26.482C126.255 26.5835 126.367 26.663 126.493 26.7144C126.619 26.7659 126.754 26.788 126.89 26.7791C127.38 26.7791 127.653 26.5622 127.704 26.1315H126.949V25.6652H128.393L128.396 27.29Z" fill="white"/>
<path d="M131.886 24.3018L130.639 26.1404V27.29H129.887V26.1286L128.619 24.3018H129.471L130.276 25.4899L131.063 24.3018H131.886Z" fill="white"/>
</g>
<defs>
<clipPath id="clip0">
<rect width="133" height="36" fill="white"/>
</clipPath>
</defs>
</svg>
