<svg width="133" height="36" xmlns="http://www.w3.org/2000/svg" viewBox="0 0 416.8 160.35"><defs><style>.cls-1{fill:#fff0c1;}.cls-2{fill:#c6daf6;}.cls-3{fill:#82bb94;}.cls-4{fill:#fde284;}.cls-5{fill:#8bb8ee;}.cls-6{fill:#007934;}.cls-7{fill:#231f20;}</style></defs><g id="Layer_2" data-name="Layer 2"><g id="SYN_Logo" data-name="SYN Logo"><polygon class="cls-1" points="151.33 130.95 151.29 72.32 126.43 57.99 126.41 87.98 101.57 102.3 101.56 131.05 75.69 145.97 100.57 160.31 151.33 130.95"/><polygon class="cls-2" points="49.75 102.32 24.85 87.92 24.87 58.04 0.03 72.37 0 131 50.77 160.34 75.69 145.97 49.77 131.02 49.75 102.32"/><polygon class="cls-3" points="75.63 57.41 100.48 43.03 126.43 57.99 126.44 29.35 75.68 0 24.89 29.29 24.87 58.04 50.82 43.07 75.63 57.41"/><polygon class="cls-4" points="75.63 57.41 101.59 72.42 101.57 102.3 126.41 87.98 126.43 57.99 100.48 43.03 75.63 57.41"/><polygon class="cls-5" points="49.75 102.32 49.73 72.39 75.63 57.41 50.82 43.07 24.87 58.04 24.85 87.92 49.75 102.32"/><polygon class="cls-6" points="75.63 57.41 49.73 72.39 49.75 102.32 75.62 117.27 101.57 102.3 101.59 72.42 75.63 57.41"/><polygon class="cls-5" points="75.62 117.27 49.75 102.32 49.77 131.02 75.69 145.97 75.62 117.27"/><polygon class="cls-4" points="75.69 145.97 101.56 131.05 101.57 102.3 75.62 117.27 75.69 145.97"/><path class="cls-3" d="M195.94,108.16a22.89,22.89,0,0,1-7.19-1.11,20.49,20.49,0,0,1-5.9-3,14.84,14.84,0,0,1-4-4.5,11.16,11.16,0,0,1-1.52-5.62,2.28,2.28,0,0,1,.72-1.73,2.42,2.42,0,0,1,3.28,0,2.29,2.29,0,0,1,.72,1.73,6.66,6.66,0,0,0,1,3.57,10.51,10.51,0,0,0,2.92,3,15.64,15.64,0,0,0,4.45,2.08,20.43,20.43,0,0,0,11,0,16,16,0,0,0,4.49-2.09,10.34,10.34,0,0,0,3-3,6.65,6.65,0,0,0,1-3.57,7.23,7.23,0,0,0-3.34-6c-2.34-1.73-6-3-11-3.84-5.55-1-10-2.68-13.24-5.11s-5.06-5.71-5.06-9.46a11.11,11.11,0,0,1,1.52-5.62,15,15,0,0,1,4-4.51,20.49,20.49,0,0,1,5.9-3,23.74,23.74,0,0,1,13.79-.17,21.7,21.7,0,0,1,5.6,2.54,15.94,15.94,0,0,1,4.18,3.9,11.55,11.55,0,0,1,2.13,5,8,8,0,0,1,.21,1.88,2.29,2.29,0,0,1-.72,1.73,2.4,2.4,0,0,1-1.64.63,2.35,2.35,0,0,1-1.64-.64,2.23,2.23,0,0,1-.73-1.72,4.52,4.52,0,0,0,0-.53c0-.19,0-.37-.09-.57a7.22,7.22,0,0,0-1.47-3.23,11,11,0,0,0-3-2.65A16.61,16.61,0,0,0,201,60.69a20,20,0,0,0-10.62.1A15.25,15.25,0,0,0,186,62.87a10.26,10.26,0,0,0-2.92,3,6.61,6.61,0,0,0-1,3.57,5.93,5.93,0,0,0,1.16,3.67,11.74,11.74,0,0,0,3.23,2.92A19.82,19.82,0,0,0,191,78.14a35.09,35.09,0,0,0,5.31,1.2c12.19,2.36,18.32,7.26,18.32,14.58a11.16,11.16,0,0,1-1.52,5.62,14.89,14.89,0,0,1-4.08,4.51,21.18,21.18,0,0,1-5.93,3A22.89,22.89,0,0,1,195.94,108.16Z"/><path class="cls-3" d="M234.17,131.81a7,7,0,0,1-2.25-13.53V86.16a15.4,15.4,0,0,1-4-1.11,15.94,15.94,0,0,1-5.09-3.5,16.87,16.87,0,0,1-3.42-5.18,16,16,0,0,1-1.26-6V57.66a2.22,2.22,0,0,1,.72-1.66,2.37,2.37,0,0,1,1.64-.64,2.27,2.27,0,0,1,1.57.64,2.19,2.19,0,0,1,.73,1.66V70a11.5,11.5,0,0,0,.89,4.52,12.06,12.06,0,0,0,2.45,3.7,11.89,11.89,0,0,0,3.64,2.51,10.92,10.92,0,0,0,8.82,0,11.69,11.69,0,0,0,6.08-6.21,11.4,11.4,0,0,0,.9-4.52V57.66a2.29,2.29,0,0,1,.66-1.64,2.27,2.27,0,0,1,1.63-.66,2.35,2.35,0,0,1,1.64.64,2.19,2.19,0,0,1,.73,1.66V70.33l0,.06a15.91,15.91,0,0,1-1.26,6,17.27,17.27,0,0,1-3.41,5.18,15.88,15.88,0,0,1-5.1,3.5,14.78,14.78,0,0,1-3.9,1.1v32.2a6.94,6.94,0,0,1-2.41,13.46Zm0-9.73a2.78,2.78,0,1,0,2.78,2.78A2.78,2.78,0,0,0,234.17,122.08Z"/><path class="cls-3" d="M284.2,108.16a2.37,2.37,0,0,1-2.36-2.36v-34a11.81,11.81,0,0,0-7.08-10.94,11.27,11.27,0,0,0-8.92,0,12.16,12.16,0,0,0-3.67,2.55,12,12,0,0,0-3.38,8.39v34a2.34,2.34,0,0,1-.69,1.67,2.37,2.37,0,0,1-1.67.69,2.36,2.36,0,0,1-2.36-2.36V71.44a16.6,16.6,0,0,1,1.26-6,16.42,16.42,0,0,1,3.49-5.28A17,17,0,0,1,264,56.54a16,16,0,0,1,12.69,0,16.77,16.77,0,0,1,5.14,3.57,16.61,16.61,0,0,1,4.75,11.32V105.8a2.31,2.31,0,0,1-.7,1.67A2.35,2.35,0,0,1,284.2,108.16Z"/><path class="cls-3" d="M340.66,108.16a2.32,2.32,0,0,1-1.67-.7,2.39,2.39,0,0,1-.69-1.73V84H315.85v21.74a2.39,2.39,0,0,1-.69,1.73,2.39,2.39,0,0,1-3.4,0,2.44,2.44,0,0,1-.63-1.71V57.66a2.17,2.17,0,0,1,2.36-2.36,2.36,2.36,0,0,1,1.64.63,2.32,2.32,0,0,1,.72,1.73V79.27H338.3V57.66a2.27,2.27,0,0,1,.72-1.72,2.37,2.37,0,0,1,1.64-.64,2.4,2.4,0,0,1,1.64.63,2.28,2.28,0,0,1,.73,1.73v48.07a2.4,2.4,0,0,1-.7,1.74A2.34,2.34,0,0,1,340.66,108.16Z"/><path class="cls-3" d="M363.83,108.1a15.56,15.56,0,0,1-6.37-1.32,16.91,16.91,0,0,1-5.18-3.52,16.25,16.25,0,0,1-3.5-5.26,16.49,16.49,0,0,1-1.25-6V57.59a2.37,2.37,0,0,1,2.36-2.36,2.29,2.29,0,0,1,1.73.72,2.4,2.4,0,0,1,.64,1.64v34a11.9,11.9,0,0,0,.9,4.6,11.73,11.73,0,0,0,6.18,6.33,11.26,11.26,0,0,0,9,0,11.89,11.89,0,0,0,7.07-10.93v-34a2.37,2.37,0,0,1,4.73,0V91.91l0,0a16.46,16.46,0,0,1-1.25,6,16.25,16.25,0,0,1-3.5,5.26,16.91,16.91,0,0,1-5.18,3.52A15.34,15.34,0,0,1,363.83,108.1Z"/><path class="cls-3" d="M386.59,108.16a2.33,2.33,0,0,1-1.66-.69,2.4,2.4,0,0,1-.7-1.74,2.37,2.37,0,0,1,2.36-2.36h15.83a9.21,9.21,0,0,0,3.75-.76,10.24,10.24,0,0,0,3.06-2.08,9.92,9.92,0,0,0,2.08-3.07,9.61,9.61,0,0,0,0-7.49,9.43,9.43,0,0,0-2.07-3,10.45,10.45,0,0,0-3.07-2,9.21,9.21,0,0,0-3.75-.76H386.59a2.28,2.28,0,0,1-1.66-.7,2.36,2.36,0,0,1-.7-1.73,2.4,2.4,0,0,1,.7-1.74,2.31,2.31,0,0,1,1.66-.69h15.83a9.38,9.38,0,0,0,3.75-.76,10.54,10.54,0,0,0,3.07-2.06,9.33,9.33,0,0,0,2.07-3,9.61,9.61,0,0,0,0-7.49,9.94,9.94,0,0,0-5.14-5.15,9.38,9.38,0,0,0-3.75-.76H386.59a2.31,2.31,0,0,1-1.66-.69,2.38,2.38,0,0,1,0-3.39,2.38,2.38,0,0,1,1.64-.64H402.8a14.14,14.14,0,0,1,5.25,1.13,14.27,14.27,0,0,1,7.61,7.61,14.06,14.06,0,0,1,1.14,5.63,13.85,13.85,0,0,1-1.14,5.6,15.07,15.07,0,0,1-3.06,4.54,13.66,13.66,0,0,1-2.3,1.88,13.61,13.61,0,0,1,2.3,1.87,15,15,0,0,1,3.06,4.55,13.81,13.81,0,0,1,1.14,5.6,14,14,0,0,1-1.14,5.62,14.89,14.89,0,0,1-3.06,4.58,14.17,14.17,0,0,1-9.79,4.23H386.59Z"/><path class="cls-7" d="M185.46,62.13a16.33,16.33,0,0,1,4.7-2.2,20.44,20.44,0,0,1,5.78-.8,19.84,19.84,0,0,1,5.34.7,17.89,17.89,0,0,1,4.51,1.9,12.33,12.33,0,0,1,3.27,2.87,8.14,8.14,0,0,1,1.64,3.61c0,.22.07.43.1.63s0,.42,0,.64a1.38,1.38,0,0,0,.43,1.07,1.52,1.52,0,0,0,1,.4,1.5,1.5,0,0,0,1-.4,1.39,1.39,0,0,0,.44-1.07,7.41,7.41,0,0,0-.2-1.74,10.65,10.65,0,0,0-2-4.6,14.93,14.93,0,0,0-3.94-3.68A20.84,20.84,0,0,0,202.28,57a22.92,22.92,0,0,0-13.25.16,19.69,19.69,0,0,0-5.64,2.87,14.3,14.3,0,0,0-3.81,4.24,10.28,10.28,0,0,0-1.4,5.18q0,5.2,4.71,8.74t12.85,5q7.68,1.26,11.38,4a8.15,8.15,0,0,1,3.71,6.75,7.6,7.6,0,0,1-1.17,4,11.26,11.26,0,0,1-3.2,3.3,16.69,16.69,0,0,1-4.74,2.2,21.28,21.28,0,0,1-11.56,0,16.07,16.07,0,0,1-4.7-2.2,11.14,11.14,0,0,1-3.17-3.3,7.6,7.6,0,0,1-1.17-4,1.37,1.37,0,0,0-.44-1.07,1.45,1.45,0,0,0-1-.4,1.47,1.47,0,0,0-1,.4,1.4,1.4,0,0,0-.43,1.07,10.27,10.27,0,0,0,1.4,5.17,14.06,14.06,0,0,0,3.81,4.24A19.44,19.44,0,0,0,189,106.2a22.85,22.85,0,0,0,13.82,0,19.88,19.88,0,0,0,5.67-2.87,13.65,13.65,0,0,0,3.84-4.24,10.18,10.18,0,0,0,1.41-5.17q0-10.29-17.5-13.69h-.06A35.91,35.91,0,0,1,190.77,79a20.28,20.28,0,0,1-4.85-2.17,12.41,12.41,0,0,1-3.47-3.14,6.85,6.85,0,0,1-1.33-4.2,7.6,7.6,0,0,1,1.17-4A11.05,11.05,0,0,1,185.46,62.13Z"/><path class="cls-7" d="M247.9,56.26a1.38,1.38,0,0,0-1,.39,1.41,1.41,0,0,0-.4,1V70a12.2,12.2,0,0,1-1,4.87,12.56,12.56,0,0,1-2.63,4A12.75,12.75,0,0,1,239,81.56a11.9,11.9,0,0,1-9.55,0,12.71,12.71,0,0,1-6.54-6.68,12.2,12.2,0,0,1-1-4.87V57.66a1.32,1.32,0,0,0-.43-1,1.43,1.43,0,0,0-1-.39,1.51,1.51,0,0,0-1,.39,1.36,1.36,0,0,0-.43,1V70.21s0,0,0,.06A15.15,15.15,0,0,0,220.26,76a16,16,0,0,0,3.24,4.9,14.71,14.71,0,0,0,4.81,3.31,14.46,14.46,0,0,0,4.5,1.13V119a6.09,6.09,0,1,0,2.88.05V85.36a14.52,14.52,0,0,0,4.43-1.13,14.71,14.71,0,0,0,4.81-3.31,16,16,0,0,0,3.24-4.9,15,15,0,0,0,1.19-5.75s0,0,0-.06V57.66a1.32,1.32,0,0,0-.43-1A1.49,1.49,0,0,0,247.9,56.26Zm-10.05,68.6a3.68,3.68,0,1,1-3.68-3.68A3.68,3.68,0,0,1,237.85,124.86Z"/><path class="cls-7" d="M284.47,65.74a15.68,15.68,0,0,0-3.31-5,15.91,15.91,0,0,0-4.87-3.37,15.13,15.13,0,0,0-12,0,15.91,15.91,0,0,0-4.87,3.37,15.68,15.68,0,0,0-3.31,5A15.43,15.43,0,0,0,255,71.55s0,0,0,.07V105.8a1.4,1.4,0,0,0,.43,1,1.43,1.43,0,0,0,1,.44,1.5,1.5,0,0,0,1.47-1.47v-34a12.82,12.82,0,0,1,3.64-9,12.63,12.63,0,0,1,3.94-2.74,12.12,12.12,0,0,1,9.64,0,12.69,12.69,0,0,1,4,2.74,12.86,12.86,0,0,1,3.63,9v34a1.5,1.5,0,0,0,1.47,1.47,1.43,1.43,0,0,0,1-.44,1.4,1.4,0,0,0,.43-1V71.62s0-.05,0-.07A15.43,15.43,0,0,0,284.47,65.74Z"/><path class="cls-7" d="M340.66,56.19a1.5,1.5,0,0,0-1,.4,1.4,1.4,0,0,0-.44,1.07V80.18l-.06,0H315V57.66a1.4,1.4,0,0,0-.44-1.07,1.5,1.5,0,0,0-1-.4A1.3,1.3,0,0,0,312,57.66v48.07a1.54,1.54,0,0,0,.4,1.1,1.39,1.39,0,0,0,1.07.44,1.41,1.41,0,0,0,1-.44,1.48,1.48,0,0,0,.44-1.1V83.1h24.23v22.64a1.48,1.48,0,0,0,.44,1.1,1.41,1.41,0,0,0,1,.44,1.43,1.43,0,0,0,1-.44,1.48,1.48,0,0,0,.43-1.1V57.66a1.39,1.39,0,0,0-.43-1.07A1.52,1.52,0,0,0,340.66,56.19Z"/><path class="cls-7" d="M377.72,56.13a1.42,1.42,0,0,0-1,.43,1.4,1.4,0,0,0-.43,1v34a12.91,12.91,0,0,1-1,4.94,12.63,12.63,0,0,1-6.64,6.81,12.21,12.21,0,0,1-9.68,0,12.6,12.6,0,0,1-6.65-6.81,12.91,12.91,0,0,1-1-4.94v-34a1.45,1.45,0,0,0-.4-1,1.37,1.37,0,0,0-1.07-.43,1.47,1.47,0,0,0-1.46,1.46V91.78s0,0,0,.07a15.42,15.42,0,0,0,1.19,5.8,15.25,15.25,0,0,0,3.3,5,16.12,16.12,0,0,0,4.91,3.34,14.79,14.79,0,0,0,6,1.23,14.63,14.63,0,0,0,5.94-1.23,16.12,16.12,0,0,0,4.91-3.34,15.25,15.25,0,0,0,3.3-5,15.42,15.42,0,0,0,1.19-5.8s0,0,0-.07V57.59a1.47,1.47,0,0,0-1.46-1.46Z"/><path class="cls-7" d="M412,84.2a13.26,13.26,0,0,0-3.45-2.5A13.06,13.06,0,0,0,412,79.19a14,14,0,0,0,2.87-4.27,12.92,12.92,0,0,0,1.07-5.24,13.22,13.22,0,0,0-1.07-5.28,13.34,13.34,0,0,0-7.15-7.14,13.07,13.07,0,0,0-5-1l-.08,0h-16a1.51,1.51,0,0,0-1,.4,1.39,1.39,0,0,0-.43,1.07,1.47,1.47,0,0,0,1.46,1.47h15.83a10.23,10.23,0,0,1,4.11.83,10.84,10.84,0,0,1,3.33,2.28,10.53,10.53,0,0,1,2.27,3.33,10.45,10.45,0,0,1,0,8.21,10.22,10.22,0,0,1-2.27,3.31,11.27,11.27,0,0,1-3.33,2.24,10.23,10.23,0,0,1-4.11.83H386.59a1.42,1.42,0,0,0-1,.44,1.46,1.46,0,0,0-.43,1.1,1.49,1.49,0,0,0,.43,1.1,1.41,1.41,0,0,0,1,.43h15.83a10.07,10.07,0,0,1,4.11.84,11.24,11.24,0,0,1,3.33,2.23,10.33,10.33,0,0,1,2.27,3.31,10.45,10.45,0,0,1,0,8.21,10.69,10.69,0,0,1-2.27,3.34,10.81,10.81,0,0,1-3.33,2.27,10.07,10.07,0,0,1-4.11.83H386.59a1.42,1.42,0,0,0-1,.44,1.4,1.4,0,0,0-.43,1,1.48,1.48,0,0,0,.43,1.1,1.42,1.42,0,0,0,1,.44h16.1a13.13,13.13,0,0,0,5-1.06,13.44,13.44,0,0,0,4.28-2.9A14.07,14.07,0,0,0,414.84,99a13.21,13.21,0,0,0,1.07-5.27,13,13,0,0,0-1.07-5.25A14.25,14.25,0,0,0,412,84.2Z"/></g></g></svg>