<svg width="133" height="36" viewBox="0 0 133 36" fill="none" xmlns="http://www.w3.org/2000/svg">
<g clip-path="url(#clip0)">
<path d="M53.6874 29.3995L53.6784 16.2365L48.0971 13.0193L48.0927 19.7523L42.5159 22.9673L42.5136 29.4219L36.7056 32.7716L42.2913 35.991L53.6874 29.3995Z" fill="#FFF0C1"/>
<path d="M30.8817 22.9718L25.2914 19.7388L25.2959 13.0305L19.7191 16.2477L19.7124 29.4107L31.1107 36L36.7055 32.7716L30.8862 29.4152L30.8817 22.9718Z" fill="#C6DAF6"/>
<path d="M36.692 12.8891L42.271 9.66062L48.097 13.0193L48.0993 6.58934L36.7032 0L25.3004 6.57587L25.2959 13.0305L31.1219 9.6696L36.692 12.8891Z" fill="#82BB94"/>
<path d="M36.6919 12.8891L42.5201 16.259L42.5157 22.9673L48.0925 19.7523L48.0969 13.0193L42.2709 9.66064L36.6919 12.8891Z" fill="#FDE284"/>
<path d="M30.8818 22.9717L30.8773 16.2522L36.6921 12.889L31.122 9.66956L25.296 13.0305L25.2915 19.7388L30.8818 22.9717Z" fill="#8BB8EE"/>
<path d="M36.6922 12.889L30.8774 16.2522L30.8819 22.9717L36.69 26.3281L42.516 22.9672L42.5205 16.2589L36.6922 12.889Z" fill="#007934"/>
<path d="M36.6899 26.3282L30.8818 22.9718L30.8863 29.4152L36.7056 32.7716L36.6899 26.3282Z" fill="#8BB8EE"/>
<path d="M36.7057 32.7716L42.5137 29.4219L42.5159 22.9673L36.6899 26.3282L36.7057 32.7716Z" fill="#FDE284"/>
<path d="M63.7028 24.2829C63.1549 24.2864 62.6099 24.2023 62.0886 24.0337C61.6135 23.8825 61.1661 23.655 60.764 23.3602C60.3988 23.0883 60.0931 22.7445 59.866 22.3499C59.6426 21.9669 59.5248 21.5315 59.5247 21.0881C59.5226 21.0156 59.5359 20.9435 59.5638 20.8766C59.5916 20.8096 59.6334 20.7493 59.6863 20.6997C59.7867 20.6073 59.9181 20.5559 60.0545 20.5559C60.191 20.5559 60.3224 20.6073 60.4227 20.6997C60.4755 20.7494 60.5172 20.8097 60.5451 20.8766C60.573 20.9436 60.5864 21.0157 60.5844 21.0881C60.5819 21.3712 60.6597 21.6491 60.8089 21.8896C60.98 22.1558 61.203 22.3849 61.4645 22.5632C61.7708 22.7705 62.108 22.9281 62.4635 23.0301C63.2712 23.2559 64.1254 23.2559 64.9331 23.0301C65.2915 22.927 65.6315 22.7687 65.9412 22.5609C66.2098 22.3854 66.4392 22.156 66.6147 21.8874C66.764 21.6469 66.8419 21.3689 66.8392 21.0859C66.8357 20.8168 66.7653 20.5528 66.6344 20.3177C66.5035 20.0825 66.3162 19.8836 66.0893 19.7388C65.564 19.3504 64.7423 19.0653 63.6197 18.8767C62.3737 18.6522 61.3747 18.275 60.6472 17.7295C59.9198 17.1839 59.5112 16.4475 59.5112 15.6056C59.5108 15.1622 59.6286 14.7267 59.8525 14.3439C60.0802 13.9491 60.3857 13.6046 60.7505 13.3314C61.1526 13.0365 61.6 12.8091 62.0751 12.6578C63.0806 12.339 64.1581 12.3257 65.1711 12.6197C65.6151 12.7491 66.0385 12.9411 66.4283 13.1899C66.7914 13.4228 67.1093 13.7195 67.3668 14.0655C67.6132 14.3963 67.7772 14.7811 67.845 15.188C67.8774 15.3264 67.8932 15.4681 67.8921 15.6101C67.8941 15.6826 67.8807 15.7547 67.8529 15.8216C67.825 15.8885 67.7833 15.9488 67.7305 15.9985C67.6301 16.0905 67.4985 16.141 67.3623 16.14C67.2256 16.1416 67.0936 16.0901 66.9941 15.9963C66.9405 15.9476 66.8981 15.8879 66.8698 15.8212C66.8415 15.7545 66.828 15.6825 66.8302 15.6101C66.8325 15.5705 66.8325 15.5308 66.8302 15.4911C66.8302 15.4485 66.8302 15.4081 66.81 15.3632C66.762 15.0977 66.6486 14.8485 66.48 14.638C66.2938 14.4002 66.0655 14.1985 65.8065 14.043C65.5053 13.8587 65.1795 13.7181 64.8388 13.6255C64.0566 13.4179 63.2328 13.4257 62.4545 13.6479C62.104 13.7501 61.772 13.9078 61.4712 14.1149C61.2087 14.292 60.9855 14.5212 60.8156 14.7884C60.6659 15.0287 60.588 15.3068 60.5911 15.5899C60.5839 15.8859 60.6755 16.1758 60.8515 16.4139C61.0503 16.6757 61.2962 16.898 61.5767 17.0694C61.8944 17.2696 62.2361 17.4288 62.5937 17.5431C62.9835 17.6637 63.3821 17.7538 63.7859 17.8125C66.5226 18.3424 67.8989 19.4425 67.8989 21.0859C67.8988 21.5293 67.781 21.9647 67.5576 22.3476C67.3258 22.745 67.0139 23.0898 66.6416 23.3602C66.2361 23.6533 65.7868 23.8806 65.3103 24.0337C64.7911 24.2016 64.2485 24.2857 63.7028 24.2829V24.2829Z" fill="white"/>
<path d="M72.2856 29.5925C71.9238 29.579 71.5776 29.4411 71.3058 29.2019C71.0339 28.9627 70.853 28.637 70.7936 28.2798C70.7342 27.9226 70.7999 27.5558 70.9798 27.2415C71.1596 26.9272 71.4424 26.6847 71.7805 26.5549V19.3436C71.4713 19.3015 71.1692 19.2176 70.8824 19.0944C70.4539 18.9095 70.0657 18.6426 69.7397 18.3086C69.414 17.9718 69.1537 17.5775 68.9719 17.1457C68.7916 16.7191 68.6956 16.2617 68.689 15.7986V12.9451C68.6883 12.8751 68.7023 12.8058 68.7301 12.7416C68.758 12.6774 68.799 12.6197 68.8506 12.5724C68.9504 12.479 69.0822 12.4276 69.2188 12.4288C69.3505 12.4293 69.4768 12.4808 69.5713 12.5724C69.6237 12.6193 69.6654 12.6767 69.6936 12.741C69.7219 12.8053 69.7361 12.8749 69.7352 12.9451V15.7156C69.7327 16.0638 69.8006 16.409 69.935 16.7303C70.0654 17.0389 70.2519 17.3205 70.4851 17.561C70.7198 17.7983 70.997 17.9895 71.3023 18.1245C71.6142 18.2622 71.9514 18.3334 72.2924 18.3334C72.6333 18.3334 72.9705 18.2622 73.2824 18.1245C73.8997 17.8525 74.3885 17.3532 74.6475 16.7303C74.7832 16.4094 74.852 16.0641 74.8495 15.7156V12.9451C74.8486 12.877 74.8612 12.8094 74.8866 12.7462C74.9121 12.6829 74.9498 12.6254 74.9977 12.5769C75.0458 12.5291 75.1029 12.4914 75.1657 12.466C75.2286 12.4405 75.2959 12.4279 75.3636 12.4288C75.5004 12.4271 75.6324 12.4786 75.7318 12.5724C75.7842 12.6193 75.8259 12.6767 75.8542 12.741C75.8824 12.8053 75.8966 12.8749 75.8957 12.9451V15.7897V15.8031C75.8897 16.2662 75.7936 16.7237 75.6128 17.1502C75.4299 17.5808 75.1705 17.9749 74.8473 18.3131C74.5208 18.6476 74.1318 18.9146 73.7023 19.0989C73.4231 19.221 73.1285 19.3041 72.8267 19.3459V26.5751C73.1714 26.7007 73.4606 26.944 73.6435 27.262C73.8265 27.58 73.8913 27.9524 73.8266 28.3135C73.762 28.6746 73.572 29.0013 73.2901 29.2361C73.0082 29.4709 72.6525 29.5987 72.2856 29.5969V29.5925ZM72.2856 27.408C72.1622 27.408 72.0415 27.4446 71.9389 27.5132C71.8362 27.5818 71.7562 27.6792 71.709 27.7933C71.6618 27.9073 71.6494 28.0328 71.6735 28.1539C71.6976 28.275 71.757 28.3862 71.8443 28.4735C71.9316 28.5607 72.0428 28.6202 72.1639 28.6443C72.2849 28.6683 72.4104 28.656 72.5245 28.6087C72.6385 28.5615 72.736 28.4815 72.8046 28.3789C72.8732 28.2762 72.9098 28.1556 72.9098 28.0321C72.9098 27.8666 72.844 27.7078 72.727 27.5908C72.6099 27.4737 72.4512 27.408 72.2856 27.408V27.408Z" fill="white"/>
<path d="M83.5179 24.2828C83.3775 24.2823 83.2431 24.2262 83.1439 24.127C83.0446 24.0278 82.9886 23.8933 82.988 23.753V16.1197C82.9932 15.5995 82.8453 15.0893 82.5627 14.6526C82.28 14.2158 81.8752 13.8719 81.3985 13.6636C81.0823 13.5273 80.7415 13.457 80.3972 13.457C80.0528 13.457 79.7121 13.5273 79.3959 13.6636C79.0882 13.8019 78.8089 13.996 78.5719 14.2361C78.083 14.7409 77.8107 15.4169 77.8131 16.1197V23.753C77.8134 23.8226 77.7999 23.8917 77.7733 23.956C77.7467 24.0204 77.7076 24.0788 77.6582 24.1279C77.5586 24.2271 77.4238 24.2827 77.2833 24.2828C77.1427 24.2828 77.008 24.227 76.9086 24.1277C76.8092 24.0283 76.7534 23.8935 76.7534 23.753V16.0389C76.7633 15.5762 76.8592 15.1194 77.0363 14.6918C77.2181 14.2496 77.4843 13.847 77.8198 13.5064C78.1533 13.1652 78.5477 12.8895 78.9828 12.6937C79.4326 12.4994 79.9173 12.3992 80.4073 12.3992C80.8973 12.3992 81.382 12.4994 81.8318 12.6937C82.2634 12.8861 82.6548 13.158 82.9858 13.4952C83.6528 14.1751 84.0343 15.0844 84.0522 16.0366V23.753C84.0526 23.8229 84.0389 23.8921 84.0119 23.9565C83.9849 24.0209 83.9451 24.0792 83.895 24.1279C83.8456 24.1775 83.7868 24.2167 83.722 24.2433C83.6573 24.2699 83.5879 24.2833 83.5179 24.2828V24.2828Z" fill="white"/>
<path d="M96.1938 24.2829C96.124 24.2832 96.0548 24.2694 95.9904 24.2424C95.926 24.2154 95.8676 24.1758 95.8189 24.1258C95.7684 24.0747 95.7286 24.014 95.702 23.9473C95.6754 23.8806 95.6625 23.8092 95.664 23.7374V18.8588H90.6238V23.7396C90.6252 23.8114 90.6123 23.8828 90.5857 23.9495C90.5591 24.0162 90.5193 24.0769 90.4688 24.128C90.4189 24.1785 90.3595 24.2186 90.294 24.246C90.2285 24.2733 90.1582 24.2874 90.0872 24.2874C90.0162 24.2874 89.9459 24.2733 89.8804 24.246C89.8148 24.2186 89.7554 24.1785 89.7055 24.128C89.6106 24.0231 89.5599 23.8855 89.5641 23.7441V12.9452C89.5575 12.874 89.5667 12.8022 89.591 12.735C89.6153 12.6677 89.6541 12.6066 89.7047 12.556C89.7553 12.5054 89.8164 12.4666 89.8836 12.4423C89.9509 12.418 90.0227 12.4088 90.0939 12.4154C90.2303 12.4134 90.3621 12.4641 90.4621 12.5568C90.5146 12.6068 90.556 12.6671 90.5839 12.734C90.6117 12.8009 90.6253 12.8728 90.6238 12.9452V17.7969H95.664V12.9452C95.662 12.8731 95.6755 12.8014 95.7033 12.7348C95.7312 12.6682 95.7729 12.6083 95.8256 12.5591C95.9259 12.4666 96.0574 12.4153 96.1938 12.4153C96.3302 12.4153 96.4617 12.4666 96.562 12.5591C96.6155 12.6078 96.6579 12.6676 96.6861 12.7342C96.7144 12.8009 96.728 12.8729 96.7259 12.9452V23.7374C96.7273 23.8097 96.7141 23.8816 96.6871 23.9487C96.6601 24.0158 96.6198 24.0768 96.5687 24.128C96.5196 24.1774 96.4612 24.2165 96.3968 24.2431C96.3325 24.2697 96.2635 24.2832 96.1938 24.2829V24.2829Z" fill="white"/>
<path d="M101.395 24.2694C100.903 24.2725 100.416 24.1715 99.9652 23.973C99.5317 23.7843 99.1373 23.5163 98.8023 23.1828C98.4656 22.8443 98.1986 22.4431 98.0165 22.0018C97.8396 21.5743 97.7444 21.1174 97.7358 20.6548V12.9294C97.7364 12.7891 97.7924 12.6547 97.8917 12.5554C97.9909 12.4562 98.1253 12.4002 98.2657 12.3996C98.3382 12.3976 98.4102 12.411 98.4772 12.4389C98.5441 12.4667 98.6044 12.5084 98.6541 12.5612C98.7469 12.6614 98.7982 12.7929 98.7978 12.9294V20.5627C98.796 20.917 98.8647 21.268 98.9998 21.5955C99.2591 22.2321 99.757 22.7422 100.387 23.0166C100.706 23.1556 101.05 23.2273 101.398 23.2273C101.745 23.2273 102.089 23.1556 102.408 23.0166C102.882 22.8062 103.285 22.462 103.567 22.0262C103.849 21.5904 103.998 21.0818 103.995 20.5627V12.9294C104.004 12.7946 104.064 12.6681 104.162 12.5757C104.261 12.4833 104.391 12.4319 104.526 12.4319C104.661 12.4319 104.791 12.4833 104.89 12.5757C104.989 12.6681 105.048 12.7946 105.057 12.9294V20.6346C105.049 21.0972 104.953 21.5542 104.776 21.9816C104.594 22.4229 104.327 22.8241 103.991 23.1626C103.656 23.4961 103.261 23.7641 102.828 23.9528C102.379 24.16 101.89 24.268 101.395 24.2694V24.2694Z" fill="white"/>
<path d="M106.505 24.2829C106.436 24.2831 106.367 24.2694 106.303 24.2429C106.239 24.2163 106.181 24.1772 106.132 24.128C106.081 24.0768 106.041 24.0158 106.014 23.9487C105.987 23.8816 105.974 23.8097 105.975 23.7374C105.976 23.597 106.032 23.4626 106.131 23.3634C106.23 23.2641 106.365 23.2081 106.505 23.2075H110.059C110.349 23.2102 110.635 23.1521 110.901 23.0369C111.156 22.9242 111.389 22.766 111.588 22.5699C111.786 22.3716 111.944 22.1377 112.055 21.8807C112.167 21.6147 112.225 21.3287 112.225 21.0399C112.225 20.751 112.167 20.4651 112.055 20.1991C111.945 19.9465 111.787 19.7177 111.59 19.5256C111.389 19.3365 111.155 19.1845 110.901 19.0766C110.635 18.9614 110.349 18.9032 110.059 18.9059H106.505C106.436 18.9064 106.367 18.8927 106.303 18.8657C106.238 18.8387 106.181 18.7989 106.132 18.7488C106.081 18.6981 106.041 18.6376 106.014 18.5708C105.987 18.504 105.974 18.4324 105.975 18.3604C105.974 18.288 105.987 18.2162 106.014 18.1491C106.041 18.082 106.081 18.021 106.132 17.9697C106.181 17.9203 106.239 17.8811 106.303 17.8545C106.367 17.8279 106.436 17.8144 106.505 17.8148H110.059C110.348 17.8164 110.635 17.7583 110.901 17.6442C111.156 17.5318 111.389 17.3753 111.59 17.1817C111.788 16.9899 111.946 16.7611 112.055 16.5082C112.167 16.2422 112.225 15.9562 112.225 15.6674C112.225 15.3785 112.167 15.0926 112.055 14.8266C111.83 14.3092 111.418 13.8961 110.901 13.6704C110.635 13.5563 110.348 13.4982 110.059 13.4998H106.505C106.436 13.5002 106.367 13.4867 106.303 13.46C106.239 13.4334 106.181 13.3943 106.132 13.3448C106.082 13.2951 106.042 13.2359 106.015 13.1706C105.987 13.1052 105.973 13.0351 105.973 12.9643C105.973 12.8935 105.987 12.8234 106.015 12.758C106.042 12.6927 106.082 12.6335 106.132 12.5838C106.232 12.4906 106.364 12.4392 106.501 12.4401H110.144C110.55 12.4486 110.95 12.5347 111.323 12.6938C112.094 13.0185 112.707 13.6316 113.032 14.4023C113.203 14.8015 113.29 15.2318 113.287 15.6663C113.29 16.0986 113.203 16.5268 113.032 16.9235C112.867 17.3024 112.634 17.6478 112.345 17.9428C112.189 18.1025 112.016 18.2441 111.828 18.3649C112.015 18.4856 112.188 18.6264 112.345 18.7847C112.634 19.0801 112.867 19.4264 113.032 19.8062C113.204 20.2029 113.291 20.6311 113.287 21.0635C113.29 21.4972 113.203 21.9268 113.032 22.3252C112.868 22.7077 112.635 23.0564 112.345 23.3535C111.764 23.9442 110.975 24.2849 110.147 24.3031H106.505V24.2829Z" fill="white"/>
<path d="M61.3498 13.9488C61.6729 13.729 62.0291 13.5622 62.405 13.4549C62.8267 13.3332 63.2637 13.2728 63.7026 13.2753C64.1075 13.2729 64.5109 13.3258 64.9015 13.4324C65.2569 13.5275 65.5976 13.6711 65.914 13.859C66.195 14.0285 66.4436 14.2467 66.6482 14.5033C66.8358 14.739 66.9623 15.0174 67.0164 15.3138C67.0164 15.3632 67.0321 15.4126 67.0388 15.4552C67.0456 15.4979 67.0388 15.5495 67.0388 15.5989C67.0366 15.6436 67.0441 15.6881 67.0608 15.7296C67.0775 15.7711 67.1029 15.8084 67.1354 15.8391C67.1967 15.8955 67.2766 15.9274 67.3599 15.9289C67.4432 15.9278 67.5232 15.8958 67.5844 15.8391C67.6171 15.8085 67.6429 15.7713 67.6599 15.7298C67.677 15.6883 67.6849 15.6437 67.6832 15.5989C67.6837 15.4674 67.6686 15.3363 67.6383 15.2083C67.5729 14.8332 67.419 14.4791 67.1892 14.1755C66.947 13.8487 66.6472 13.5688 66.3047 13.3493C65.9394 13.1112 65.5427 12.9253 65.126 12.7971C64.1525 12.5159 63.1177 12.5284 62.1513 12.833C61.6972 12.9781 61.2696 13.1957 60.885 13.4773C60.5383 13.7342 60.2473 14.0588 60.0296 14.4315C59.8236 14.7836 59.7151 15.1842 59.7153 15.5922C59.7153 16.3705 60.0678 17.0246 60.7728 17.5544C61.4777 18.0842 62.4394 18.4584 63.6577 18.6769C64.8072 18.8655 65.6588 19.1649 66.2126 19.575C66.4656 19.7393 66.6741 19.9637 66.8194 20.2281C66.9647 20.4925 67.0424 20.7887 67.0455 21.0904C67.0434 21.4084 66.9524 21.7194 66.7829 21.9884C66.5969 22.2822 66.3523 22.5344 66.0644 22.7293C65.7379 22.9488 65.3787 23.1155 65.0003 23.2232C64.1517 23.4627 63.2535 23.4627 62.405 23.2232C62.0288 23.1169 61.6724 22.95 61.3498 22.7293C61.0638 22.5343 60.8215 22.282 60.6381 21.9884C60.4685 21.7194 60.3776 21.4084 60.3754 21.0904C60.3774 21.0456 60.3697 21.0009 60.3526 20.9594C60.3355 20.9179 60.3096 20.8806 60.2766 20.8502C60.2161 20.7925 60.1357 20.7604 60.0521 20.7604C59.9686 20.7608 59.8884 20.7929 59.8276 20.8502C59.7954 20.8811 59.7701 20.9185 59.7534 20.9599C59.7368 21.0013 59.7292 21.0458 59.731 21.0904C59.7313 21.4983 59.8398 21.8988 60.0454 22.2511C60.2625 22.6235 60.5536 22.9475 60.9007 23.203C61.2782 23.4818 61.6982 23.6979 62.1445 23.8429C63.154 24.1631 64.2378 24.1631 65.2472 23.8429C65.7034 23.6978 66.1332 23.4802 66.5202 23.1985C66.8716 22.9457 67.1654 22.6213 67.3823 22.2466C67.5896 21.8949 67.6989 21.4942 67.6989 21.0859C67.6989 19.5458 66.3892 18.5213 63.77 18.0124H63.7565C63.3451 17.9518 62.939 17.8595 62.5419 17.7362C62.1592 17.6223 61.7931 17.4585 61.453 17.2491C61.151 17.0656 60.8866 16.8264 60.674 16.5441C60.4733 16.2712 60.3684 15.9398 60.3754 15.6012C60.3776 15.2832 60.4685 14.9722 60.6381 14.7031C60.8195 14.4043 61.062 14.1473 61.3498 13.9488V13.9488Z" fill="white"/>
<path d="M75.3682 12.6309C75.3267 12.6296 75.2853 12.637 75.2466 12.6524C75.208 12.6679 75.173 12.6911 75.1437 12.7207C75.1144 12.7501 75.0913 12.7851 75.0758 12.8237C75.0604 12.8623 75.053 12.9036 75.0539 12.9452V15.7156C75.0549 16.0916 74.9785 16.4638 74.8294 16.809C74.692 17.1434 74.4915 17.4483 74.239 17.707C73.9894 17.9606 73.6947 18.1654 73.3701 18.3109C73.0321 18.459 72.6671 18.5355 72.2981 18.5355C71.9291 18.5355 71.5641 18.459 71.2261 18.3109C70.5639 18.0157 70.0389 17.4795 69.7578 16.8112C69.6087 16.466 69.5323 16.0939 69.5333 15.7179V12.9452C69.5345 12.903 69.5265 12.861 69.5098 12.8222C69.4932 12.7835 69.4682 12.7488 69.4367 12.7207C69.4071 12.6916 69.372 12.6687 69.3334 12.6533C69.2949 12.6379 69.2537 12.6303 69.2122 12.6309C69.1287 12.6313 69.0485 12.6634 68.9877 12.7207C68.9566 12.7491 68.9319 12.7838 68.9152 12.8225C68.8986 12.8612 68.8904 12.9031 68.8912 12.9452V15.7628C68.8912 15.7628 68.8912 15.7628 68.8912 15.7762C68.8972 16.2186 68.9895 16.6556 69.1628 17.0627C69.3353 17.4711 69.5819 17.8441 69.8902 18.1628C70.1969 18.4801 70.5641 18.7328 70.9701 18.9059C71.291 19.0443 71.6322 19.13 71.9804 19.1596V26.7166C71.6541 26.79 71.3661 26.9805 71.1708 27.2519C70.9755 27.5234 70.8864 27.857 70.9205 28.1897C70.9545 28.5224 71.1094 28.831 71.3556 29.0573C71.6019 29.2835 71.9225 29.4117 72.2569 29.4175C72.5913 29.4233 72.9162 29.3064 73.1702 29.0888C73.4241 28.8712 73.5896 28.5681 73.6351 28.2368C73.6807 27.9055 73.6033 27.569 73.4175 27.2909C73.2318 27.0128 72.9505 26.8125 72.627 26.7278V19.1641C72.9698 19.1326 73.3055 19.0469 73.6216 18.9104C74.0276 18.7373 74.3948 18.4846 74.7015 18.1673C75.0097 17.8486 75.2564 17.4756 75.4289 17.0672C75.6021 16.6587 75.6929 16.2199 75.696 15.7762C75.696 15.7762 75.696 15.7762 75.696 15.7628V12.9452C75.6973 12.903 75.6893 12.861 75.6726 12.8222C75.6559 12.7835 75.631 12.7488 75.5995 12.7207C75.5371 12.6616 75.4541 12.6294 75.3682 12.6309V12.6309ZM73.1119 28.0322C73.1119 28.1956 73.0635 28.3553 72.9727 28.4912C72.8819 28.6271 72.7529 28.733 72.6019 28.7955C72.4509 28.858 72.2848 28.8744 72.1246 28.8425C71.9643 28.8106 71.8171 28.7319 71.7015 28.6164C71.586 28.5008 71.5073 28.3536 71.4754 28.1934C71.4435 28.0331 71.4599 27.867 71.5224 27.716C71.585 27.565 71.6909 27.436 71.8267 27.3452C71.9626 27.2544 72.1223 27.206 72.2857 27.206C72.5049 27.206 72.715 27.293 72.8699 27.448C73.0249 27.6029 73.1119 27.8131 73.1119 28.0322V28.0322Z" fill="white"/>
<path d="M83.5782 14.7592C83.405 14.3407 83.1527 13.9596 82.8351 13.6367C82.5212 13.3183 82.1503 13.0616 81.7417 12.8801C81.3164 12.6963 80.858 12.6016 80.3947 12.6016C79.9314 12.6016 79.473 12.6963 79.0476 12.8801C78.639 13.0616 78.2682 13.3183 77.9543 13.6367C77.6367 13.9596 77.3843 14.3407 77.2111 14.7592C77.0447 15.1739 76.9601 15.6168 76.9619 16.0636C76.9619 16.0636 76.9619 16.0636 76.9619 16.0793V23.753C76.9622 23.795 76.9709 23.8365 76.9875 23.8751C77.0041 23.9136 77.0282 23.9485 77.0585 23.9776C77.1173 24.0389 77.198 24.0744 77.283 24.0763C77.37 24.0746 77.4529 24.0393 77.5145 23.9778C77.576 23.9162 77.6113 23.8333 77.613 23.7463V16.113C77.61 15.3584 77.9035 14.6328 78.4302 14.0924C78.6831 13.8327 78.9833 13.6239 79.3148 13.4773C79.6564 13.3292 80.0247 13.2528 80.3969 13.2528C80.7692 13.2528 81.1375 13.3292 81.4791 13.4773C81.8152 13.6227 82.1201 13.8316 82.3771 14.0924C82.9022 14.6337 83.1947 15.3589 83.1921 16.113V23.7463C83.1938 23.8333 83.2291 23.9162 83.2906 23.9778C83.3522 24.0393 83.4351 24.0746 83.5221 24.0763C83.6071 24.0744 83.6878 24.0389 83.7466 23.9776C83.7769 23.9485 83.801 23.9136 83.8176 23.8751C83.8342 23.8365 83.8429 23.795 83.8431 23.753V16.0793C83.8431 16.0793 83.8431 16.0681 83.8431 16.0636C83.84 15.6158 83.75 15.1728 83.5782 14.7592V14.7592Z" fill="white"/>
<path d="M96.1937 12.6151C96.1104 12.6163 96.0304 12.6483 95.9692 12.7049C95.9366 12.7356 95.9109 12.7729 95.8939 12.8144C95.8768 12.8558 95.8688 12.9004 95.8704 12.9452V18.0011H95.857H90.4328V12.9452C90.4344 12.9004 90.4265 12.8558 90.4094 12.8144C90.3924 12.7729 90.3667 12.7356 90.3341 12.7049C90.2729 12.6483 90.1929 12.6163 90.1095 12.6151C90.0632 12.6051 90.0152 12.6065 89.9696 12.6192C89.9239 12.6319 89.882 12.6555 89.8476 12.688C89.8131 12.7205 89.787 12.7609 89.7717 12.8057C89.7563 12.8505 89.752 12.8984 89.7593 12.9452V23.7373C89.7556 23.8282 89.7878 23.917 89.8491 23.9843C89.8797 24.017 89.917 24.0428 89.9585 24.0598C89.9999 24.0769 90.0446 24.0848 90.0893 24.0831C90.1315 24.0824 90.173 24.0733 90.2116 24.0563C90.2501 24.0393 90.2849 24.0148 90.3139 23.9843C90.3464 23.9521 90.372 23.9136 90.389 23.8711C90.406 23.8286 90.4141 23.7831 90.4126 23.7373V18.6567H95.8525V23.7396C95.8511 23.7853 95.8591 23.8309 95.8761 23.8734C95.8931 23.9159 95.9187 23.9544 95.9513 23.9865C95.9802 24.0171 96.015 24.0416 96.0536 24.0585C96.0921 24.0755 96.1337 24.0846 96.1758 24.0853C96.2607 24.0834 96.3415 24.0479 96.4003 23.9865C96.4325 23.9542 96.4577 23.9156 96.4743 23.8731C96.4909 23.8306 96.4986 23.7851 96.4968 23.7396V12.9452C96.4989 12.9006 96.4913 12.856 96.4746 12.8146C96.458 12.7731 96.4326 12.7357 96.4003 12.7049C96.3436 12.6525 96.2708 12.6208 96.1937 12.6151V12.6151Z" fill="white"/>
<path d="M104.514 12.6017C104.472 12.6023 104.431 12.6111 104.392 12.6276C104.354 12.6442 104.319 12.6682 104.29 12.6983C104.259 12.7274 104.235 12.7622 104.219 12.8008C104.202 12.8393 104.193 12.8808 104.193 12.9228V20.5561C104.192 20.9369 104.115 21.3138 103.968 21.6652C103.69 22.3496 103.155 22.8982 102.478 23.1941C102.135 23.3422 101.765 23.4186 101.391 23.4186C101.017 23.4186 100.648 23.3422 100.305 23.1941C99.6261 22.8992 99.0901 22.3504 98.8115 21.6652C98.6645 21.3138 98.5883 20.9369 98.587 20.5561V12.9228C98.587 12.8392 98.5549 12.7588 98.4972 12.6983C98.4666 12.6657 98.4292 12.6402 98.3877 12.6235C98.3463 12.6068 98.3016 12.5994 98.257 12.6017C98.1702 12.6023 98.0872 12.637 98.0259 12.6984C97.9645 12.7597 97.9298 12.8428 97.9292 12.9295V20.6055C97.9292 20.6055 97.9292 20.6055 97.9292 20.6212C97.9333 21.0684 98.024 21.5106 98.1964 21.9233C98.3667 22.3428 98.6185 22.7244 98.9372 23.0459C99.2551 23.362 99.6289 23.6162 100.04 23.7958C100.464 23.9808 100.923 24.0748 101.387 24.0719C101.846 24.074 102.3 23.98 102.72 23.7958C103.131 23.6162 103.505 23.362 103.823 23.0459C104.141 22.7244 104.393 22.3428 104.563 21.9233C104.736 21.5106 104.826 21.0684 104.831 20.6212C104.831 20.6212 104.831 20.6212 104.831 20.6055V12.9295C104.83 12.8428 104.795 12.7597 104.734 12.6984C104.673 12.637 104.59 12.6023 104.503 12.6017H104.514Z" fill="white"/>
<path d="M112.21 18.9036C111.984 18.676 111.722 18.4865 111.436 18.3424C111.723 18.1983 111.985 18.0079 112.21 17.7788C112.482 17.5018 112.701 17.1768 112.855 16.8202C113.016 16.4491 113.098 16.0484 113.095 15.6438C113.097 15.2363 113.015 14.8328 112.855 14.4584C112.55 13.7342 111.974 13.1585 111.249 12.8554C110.894 12.7076 110.512 12.6313 110.127 12.6309H110.109H106.517C106.433 12.6322 106.353 12.6641 106.292 12.7207C106.26 12.7515 106.234 12.7888 106.218 12.8303C106.201 12.8717 106.194 12.9163 106.196 12.9609C106.196 13.048 106.23 13.1316 106.291 13.1935C106.353 13.2553 106.436 13.2903 106.523 13.2909H110.077C110.395 13.2887 110.709 13.3521 111 13.4773C111.279 13.5996 111.533 13.7732 111.748 13.9891C111.964 14.2036 112.137 14.4574 112.257 14.7368C112.382 15.0281 112.446 15.3416 112.446 15.6584C112.446 15.9751 112.382 16.2887 112.257 16.58C112.138 16.8589 111.965 17.1115 111.748 17.3231C111.531 17.5341 111.277 17.7044 111 17.826C110.709 17.9512 110.395 18.0146 110.077 18.0123H106.505C106.463 18.0132 106.422 18.0223 106.383 18.0393C106.345 18.0562 106.31 18.0806 106.281 18.1111C106.249 18.1433 106.223 18.1819 106.207 18.2244C106.19 18.2669 106.182 18.3125 106.184 18.3581C106.183 18.4037 106.191 18.4491 106.207 18.4915C106.224 18.534 106.249 18.5726 106.281 18.605C106.31 18.6352 106.345 18.6593 106.383 18.6758C106.422 18.6924 106.463 18.7012 106.505 18.7016H110.059C110.377 18.699 110.691 18.7632 110.982 18.8902C111.259 19.0109 111.513 19.1805 111.73 19.3908C111.947 19.6028 112.12 19.8553 112.239 20.1339C112.364 20.4253 112.428 20.7388 112.428 21.0556C112.428 21.3723 112.364 21.6858 112.239 21.9772C112.119 22.2572 111.946 22.5117 111.73 22.727C111.515 22.9423 111.261 23.1151 110.982 23.2367C110.691 23.3628 110.377 23.4263 110.059 23.423H106.505C106.463 23.4238 106.422 23.433 106.383 23.4499C106.345 23.4669 106.31 23.4913 106.281 23.5218C106.251 23.5509 106.227 23.5857 106.21 23.6243C106.193 23.6628 106.185 23.7043 106.184 23.7463C106.183 23.7919 106.19 23.8373 106.207 23.8798C106.224 23.9223 106.249 23.9609 106.281 23.9933C106.31 24.0237 106.345 24.0481 106.383 24.0651C106.422 24.0821 106.463 24.0912 106.505 24.092H110.12C110.506 24.087 110.888 24.0062 111.243 23.8541C111.602 23.7013 111.928 23.4801 112.203 23.203C112.477 22.9204 112.696 22.5892 112.848 22.2264C113.008 21.8526 113.09 21.4499 113.088 21.0432C113.091 20.6379 113.009 20.2365 112.848 19.8645C112.695 19.5083 112.479 19.1827 112.21 18.9036V18.9036Z" fill="white"/>
</g>
<defs>
<clipPath id="clip0">
<rect width="133" height="36" fill="white"/>
</clipPath>
</defs>
</svg>
